<svg xmlns="http://www.w3.org/2000/svg" viewBox="0 0 2939.44 1500"><defs><style>.cls-1{fill:#66bc7b;}.cls-2{fill:#44b13f;}.cls-3{fill:#898989;}.cls-4{fill:#f2f2f2;}.cls-5{fill:#e1d1b1;}.cls-6{fill:#32495d;}</style></defs><title>Asset 2</title><g id="Layer_2" data-name="Layer 2"><g id="Layer_4" data-name="Layer 4"><polygon class="cls-1" points="825.82 771.93 726.29 405.5 717.14 458.34 676.87 386.38 670.95 437.47 766.2 788.12 825.82 771.93"/><polygon class="cls-2" points="766.2 788.12 670.95 437.47 670.67 439.88 628.63 399.5 736.39 796.22 766.2 788.12"/><polygon class="cls-2" points="855.63 763.83 738.74 333.52 726.29 405.5 825.82 771.93 855.63 763.83"/><path class="cls-3" d="M762.25,891.41a11.11,11.11,0,0,0,14,8L873.49,873a11.11,11.11,0,0,0,8-14l-15.76-58L746.49,833.38Z"/><polygon class="cls-4" points="766.2 788.12 736.39 796.22 736.38 796.22 746.48 833.38 746.49 833.38 865.73 800.99 865.73 800.99 855.64 763.83 855.63 763.83 825.82 771.93 766.2 788.12"/><polygon class="cls-1" points="393.58 1134.35 632.91 1429.14 619.88 1377.12 685.84 1426.62 670.57 1377.51 441.55 1095.41 393.58 1134.35"/><polygon class="cls-2" points="441.55 1095.41 670.57 1377.51 669.85 1375.2 724.63 1395.1 465.53 1075.94 441.55 1095.41"/><polygon class="cls-2" points="369.6 1153.82 650.65 1500 632.91 1429.14 393.58 1134.35 369.6 1153.82"/><path class="cls-3" d="M403.36,999.37a11.11,11.11,0,0,0-16-1.66l-78.25,63.53a11.11,11.11,0,0,0-1.66,16l37.9,46.68L441.26,1046Z"/><polygon class="cls-4" points="441.55 1095.41 465.53 1075.94 465.54 1075.94 441.27 1046.04 441.26 1046.05 345.33 1123.92 345.33 1123.93 369.6 1153.83 369.6 1153.82 393.58 1134.35 441.55 1095.41"/><polygon class="cls-1" points="1605.33 1337.24 1261.53 1176.07 1295.9 1217.23 1214.98 1201.38 1250.11 1238.94 1579.11 1393.18 1605.33 1337.24"/><polygon class="cls-2" points="1579.11 1393.18 1250.11 1238.94 1251.76 1240.71 1193.78 1246.65 1566 1421.15 1579.11 1393.18"/><polygon class="cls-2" points="1618.44 1309.27 1214.71 1120 1261.53 1176.07 1605.33 1337.24 1618.44 1309.27"/><path class="cls-3" d="M1655.31,1463a11.11,11.11,0,0,0,15.13-5.47l42.79-91.27a11.11,11.11,0,0,0-5.47-15.13l-54.45-25.52-52.45,111.87Z"/><polygon class="cls-4" points="1579.11 1393.18 1566 1421.15 1565.99 1421.16 1600.86 1437.5 1600.86 1437.49 1653.31 1325.62 1653.31 1325.61 1618.45 1309.27 1618.44 1309.27 1605.33 1337.24 1579.11 1393.18"/><polygon class="cls-1" points="2291.72 1105.35 2532.18 1399.21 2518.96 1347.24 2585.1 1396.49 2569.64 1347.44 2339.53 1066.23 2291.72 1105.35"/><polygon class="cls-2" points="2339.53 1066.23 2569.64 1347.44 2568.91 1345.13 2623.78 1364.82 2363.43 1046.67 2339.53 1066.23"/><polygon class="cls-2" points="2267.81 1124.91 2550.2 1470 2532.18 1399.21 2291.72 1105.35 2267.81 1124.91"/><path class="cls-3" d="M2301,970.33a11.11,11.11,0,0,0-16-1.6l-78,63.83a11.11,11.11,0,0,0-1.6,16l38.08,46.54,95.62-78.25Z"/><polygon class="cls-4" points="2339.53 1066.23 2363.43 1046.67 2363.44 1046.66 2339.06 1016.86 2339.05 1016.87 2243.43 1095.11 2243.42 1095.12 2267.8 1124.92 2267.81 1124.91 2291.72 1105.35 2339.53 1066.23"/><polygon class="cls-1" points="2722.79 792.58 2643.86 421.17 2631.78 473.42 2595.59 399.32 2586.83 450 2662.36 805.42 2722.79 792.58"/><polygon class="cls-2" points="2662.36 805.42 2586.83 450 2586.42 452.38 2546.7 409.73 2632.14 811.84 2662.36 805.42"/><polygon class="cls-2" points="2753 786.16 2660.32 350 2643.86 421.17 2722.79 792.58 2753 786.16"/><path class="cls-3" d="M2652.64,908.33a11.11,11.11,0,0,0,13.5,8.77l98.6-21a11.11,11.11,0,0,0,8.77-13.5L2761,823.83l-120.86,25.68Z"/><polygon class="cls-4" points="2662.36 805.42 2632.14 811.84 2632.13 811.85 2640.14 849.51 2640.15 849.51 2761 823.83 2761.01 823.83 2753.01 786.16 2753 786.16 2722.79 792.58 2662.36 805.42"/><polygon class="cls-5" points="2655.23 1116.25 2684.45 1072.81 2634.18 1058.17 2579.97 1117.6 2596.59 1163.45 2676.29 1174.33 2705.5 1130.89 2655.23 1116.25"/><polygon class="cls-1" points="2684.45 1072.81 2655.23 1116.25 2705.5 1130.89 2866.68 1072.46 2821.7 1068.45 2890.09 1022.39 2836.27 1020.62 2839.55 1016.59 2684.45 1072.81"/><polygon class="cls-2" points="2705.5 1130.89 2676.29 1174.33 2742.01 1150.51 2939.44 1078.94 2866.68 1072.46 2705.5 1130.89"/><polygon class="cls-2" points="2684.45 1072.81 2839.55 1016.59 2877.43 970 2634.18 1058.17 2684.45 1072.81"/><polygon class="cls-6" points="2543.78 1156.65 2596.59 1163.45 2579.97 1117.6 2543.78 1156.65"/><polygon class="cls-5" points="912.17 1386.17 920.22 1334.44 868.49 1342.48 844.57 1419.28 879.05 1453.77 955.85 1429.85 963.9 1378.12 912.17 1386.17"/><polygon class="cls-1" points="920.22 1334.44 912.17 1386.17 963.9 1378.12 1085.13 1256.89 1042.68 1272.33 1085.11 1201.62 1035.61 1222.83 1036.88 1217.78 920.22 1334.44"/><polygon class="cls-2" points="963.9 1378.12 955.85 1429.85 1005.28 1380.42 1153.78 1231.93 1085.13 1256.89 963.9 1378.12"/><polygon class="cls-2" points="920.22 1334.44 1036.88 1217.78 1051.44 1159.53 868.49 1342.48 920.22 1334.44"/><polygon class="cls-6" points="828.34 1470 879.05 1453.77 844.57 1419.28 828.34 1470"/><polygon class="cls-5" points="2452.17 286.64 2460.22 234.91 2408.49 242.95 2384.57 319.75 2419.05 354.24 2495.85 330.32 2503.9 278.59 2452.17 286.64"/><polygon class="cls-1" points="2460.22 234.91 2452.17 286.64 2503.9 278.59 2625.13 157.36 2582.68 172.79 2625.11 102.08 2575.61 123.3 2576.88 118.25 2460.22 234.91"/><polygon class="cls-2" points="2503.9 278.59 2495.85 330.32 2545.28 280.89 2693.78 132.4 2625.13 157.36 2503.9 278.59"/><polygon class="cls-2" points="2460.22 234.91 2576.88 118.25 2591.44 60 2408.49 242.95 2460.22 234.91"/><polygon class="cls-6" points="2368.34 370.47 2419.05 354.24 2384.57 319.75 2368.34 370.47"/><polygon class="cls-5" points="201.38 1403.82 151.61 1387.58 151.26 1439.93 223.23 1475.85 262.8 1447.34 251.5 1367.7 201.73 1351.46 201.38 1403.82"/><polygon class="cls-1" points="151.61 1387.58 201.38 1403.82 201.73 1351.46 101.5 1212.37 109.93 1256.74 46.94 1203.52 59.94 1255.78 55.16 1253.72 151.61 1387.58"/><polygon class="cls-2" points="201.73 1351.46 251.5 1367.7 210.63 1310.98 87.87 1140.61 101.5 1212.37 201.73 1351.46"/><polygon class="cls-2" points="151.61 1387.58 55.16 1253.72 0 1230.02 151.26 1439.93 151.61 1387.58"/><polygon class="cls-6" points="270.69 1500 262.8 1447.34 223.23 1475.85 270.69 1500"/><polygon class="cls-5" points="289.33 132.82 256.59 173.67 305.46 192.46 364.45 137.77 351.71 90.69 273.21 73.19 240.47 114.04 289.33 132.82"/><polygon class="cls-1" points="256.59 173.67 289.33 132.82 240.47 114.04 74.96 158.79 119.46 166.55 47.45 206.74 100.94 212.99 97.33 216.74 256.59 173.67"/><polygon class="cls-2" points="240.47 114.04 273.21 73.19 205.72 91.44 3 146.25 74.96 158.79 240.47 114.04"/><polygon class="cls-2" points="256.59 173.67 97.33 216.74 55.7 260 305.46 192.46 256.59 173.67"/><polygon class="cls-6" points="403.78 101.87 351.71 90.69 364.45 137.77 403.78 101.87"/><polygon class="cls-5" points="1365.56 118.55 1396.44 160.82 1427.33 118.55 1389.94 47.34 1341.17 47.34 1303.78 118.55 1334.67 160.82 1365.56 118.55"/><polygon class="cls-1" points="1396.44 160.82 1365.56 118.55 1334.67 160.82 1334.67 480.93 1353.77 440 1373.77 520 1393.77 470 1396.44 474.46 1396.44 160.82"/><polygon class="cls-2" points="1334.67 160.82 1303.78 118.55 1303.78 188.46 1303.78 547.12 1334.67 480.93 1334.67 160.82"/><polygon class="cls-2" points="1396.44 160.82 1396.44 474.46 1427.33 525.95 1427.33 118.55 1396.44 160.82"/><polygon class="cls-6" points="1365.56 0 1341.17 47.34 1389.94 47.34 1365.56 0"/><polygon class="cls-5" points="1036.35 1052.77 998.73 1089.18 1044.85 1113.96 1110.24 1067.13 1103.53 1018.82 1027.85 991.58 990.23 1027.99 1036.35 1052.77"/><polygon class="cls-1" points="998.73 1089.18 1036.35 1052.77 990.23 1027.99 673.17 1072.02 716.34 1085.31 639.85 1116.12 692.13 1129.06 688.07 1132.32 998.73 1089.18"/><polygon class="cls-2" points="990.23 1027.99 1027.85 991.58 958.61 1001.19 603.36 1050.53 673.17 1072.02 990.23 1027.99"/><polygon class="cls-2" points="998.73 1089.18 688.07 1132.32 641.33 1170 1044.85 1113.96 998.73 1089.18"/><polygon class="cls-6" points="1153.78 1036.46 1103.53 1018.82 1110.24 1067.13 1153.78 1036.46"/><polygon class="cls-5" points="246.48 914.47 258 863.4 205.84 867.94 176.8 942.95 208.88 979.68 287.12 961 298.64 909.93 246.48 914.47"/><polygon class="cls-1" points="258 863.4 246.48 914.47 298.64 909.93 539.75 699.38 496.35 711.91 543.46 644.23 492.64 662.05 494.24 657.1 258 863.4"/><polygon class="cls-2" points="298.64 909.93 287.12 961 339.77 915.02 609.92 679.11 539.75 699.38 298.64 909.93"/><polygon class="cls-2" points="258 863.4 494.24 657.1 512.7 599.97 205.84 867.94 258 863.4"/><polygon class="cls-6" points="157.18 992.45 208.88 979.68 176.8 942.95 157.18 992.45"/><polygon class="cls-1" points="1576.91 784.94 1809.3 422.11 1806.51 384.41 1759.67 401.92 1766.73 374.02 1524.88 751.62 1576.91 784.94"/><polygon class="cls-2" points="1524.88 751.62 1766.73 374.02 1775.19 340.6 1733.2 369.1 1498.87 734.96 1524.88 751.62"/><polygon class="cls-2" points="1602.92 801.6 1842.75 427.14 1810.2 434.27 1809.3 422.11 1576.91 784.94 1602.92 801.6"/><path class="cls-3" d="M1445.67,818a11.11,11.11,0,0,0,3.44,15.72L1534,888.1a11.11,11.11,0,0,0,15.72-3.45L1582.15,834l-104-66.64Z"/><polygon class="cls-4" points="1524.88 751.62 1498.87 734.96 1498.86 734.95 1478.1 767.38 1478.11 767.38 1582.15 834.02 1582.16 834.03 1602.92 801.6 1602.92 801.6 1576.91 784.94 1524.88 751.62"/><polygon class="cls-5" points="2210.3 1366.8 2159.47 1354.26 2162.97 1406.5 2237.39 1437.03 2274.76 1405.68 2257.63 1327.09 2206.8 1314.56 2210.3 1366.8"/><polygon class="cls-1" points="2159.47 1354.26 2210.3 1366.8 2206.8 1314.56 1939.71 996.15 1924.94 992.71 1927.66 1042.63 1873.78 1009.52 1875.74 1016.03 2159.47 1354.26"/><polygon class="cls-2" points="2206.8 1314.56 2257.63 1327.09 2212.7 1273.53 1974.86 990 1973.63 1004.07 1939.71 996.15 2206.8 1314.56"/><polygon class="cls-2" points="2159.47 1354.26 1875.74 1016.03 1895.78 1082.43 1893.05 1084.72 2162.97 1406.5 2159.47 1354.26"/><polygon class="cls-6" points="2286.49 1457.62 2274.76 1405.68 2237.39 1437.03 2286.49 1457.62"/><polygon class="cls-5" points="1810.3 239.17 1759.47 226.64 1762.97 278.88 1837.39 309.4 1874.76 278.06 1857.63 199.47 1806.8 186.94 1810.3 239.17"/><polygon class="cls-1" points="1759.47 226.64 1810.3 239.17 1806.8 186.94 1707.74 70.13 1692.97 66.68 1695.69 116.61 1641.81 83.49 1643.78 90 1759.47 226.64"/><polygon class="cls-2" points="1806.8 186.94 1857.63 199.47 1812.7 145.91 1742.9 63.97 1741.66 78.04 1707.74 70.13 1806.8 186.94"/><polygon class="cls-2" points="1759.47 226.64 1643.78 90 1663.82 156.4 1661.08 158.69 1762.97 278.88 1759.47 226.64"/><polygon class="cls-6" points="1886.49 330 1874.76 278.06 1837.39 309.4 1886.49 330"/><polygon class="cls-5" points="997.35 603.83 1049.08 611.88 1041.03 560.15 964.23 536.23 929.75 570.72 953.66 647.51 1005.39 655.56 997.35 603.83"/><polygon class="cls-1" points="1049.08 611.88 997.35 603.83 1005.39 655.56 1299.27 949.43 1314.28 951.58 1307.21 902.08 1363.78 930.37 1361.25 924.05 1049.08 611.88"/><polygon class="cls-2" points="1005.39 655.56 953.66 647.51 1003.09 696.95 1264.78 958.63 1264.78 944.51 1299.27 949.43 1005.39 655.56"/><polygon class="cls-2" points="1049.08 611.88 1361.25 924.05 1335.49 859.65 1338.02 857.13 1041.03 560.15 1049.08 611.88"/><polygon class="cls-6" points="913.52 520 929.75 570.72 964.23 536.23 913.52 520"/><polygon class="cls-5" points="2429.95 613.57 2421.9 665.3 2473.63 657.25 2497.55 580.46 2463.06 545.97 2386.26 569.89 2378.22 621.62 2429.95 613.57"/><polygon class="cls-1" points="2421.9 665.3 2429.95 613.57 2378.22 621.62 2084.34 915.49 2082.2 930.5 2131.7 923.43 2103.41 980 2109.72 977.48 2421.9 665.3"/><polygon class="cls-2" points="2378.22 621.62 2386.26 569.89 2336.83 619.32 2075.14 881 2089.27 881 2084.34 915.49 2378.22 621.62"/><polygon class="cls-2" points="2421.9 665.3 2109.72 977.48 2174.12 951.72 2176.64 954.24 2473.63 657.25 2421.9 665.3"/><polygon class="cls-6" points="2513.78 529.74 2463.06 545.97 2497.55 580.46 2513.78 529.74"/><polygon class="cls-5" points="416.6 279.51 438.57 231.99 386.62 225.49 342.49 292.74 366.16 335.38 446.57 333.52 468.54 286 416.6 279.51"/><polygon class="cls-1" points="438.57 231.99 416.6 279.51 468.54 286 701.33 156.83 603.91 177.61 656.66 125.46 630.72 125.36 438.57 231.99"/><polygon class="cls-2" points="468.54 286 446.57 333.52 507.7 299.6 683.78 201.89 704.35 156.18 701.33 156.83 468.54 286"/><polygon class="cls-2" points="438.57 231.99 630.72 125.36 615.73 125.3 636.5 86.83 386.62 225.49 438.57 231.99"/><polygon class="cls-6" points="312.93 337.03 366.16 335.38 342.49 292.74 312.93 337.03"/><polygon class="cls-5" points="1556.6 1059.51 1578.57 1011.99 1526.62 1005.49 1482.49 1072.74 1506.16 1115.38 1586.57 1113.52 1608.54 1066.01 1556.6 1059.51"/><polygon class="cls-1" points="1578.57 1011.99 1556.6 1059.51 1608.54 1066.01 1841.33 936.83 1743.91 957.61 1796.66 905.46 1770.72 905.36 1578.57 1011.99"/><polygon class="cls-2" points="1608.54 1066.01 1586.57 1113.52 1647.7 1079.6 1823.78 981.89 1844.35 936.18 1841.33 936.83 1608.54 1066.01"/><polygon class="cls-2" points="1578.57 1011.99 1770.72 905.36 1755.73 905.3 1776.5 866.83 1526.62 1005.49 1578.57 1011.99"/><polygon class="cls-6" points="1452.93 1117.03 1506.16 1115.38 1482.49 1072.74 1452.93 1117.03"/><polygon class="cls-5" points="2280.11 114.35 2258.14 161.87 2310.09 168.37 2354.22 101.12 2330.55 58.47 2250.14 60.33 2228.17 107.85 2280.11 114.35"/><polygon class="cls-1" points="2258.14 161.87 2280.11 114.35 2228.17 107.85 1995.38 237.03 2092.8 216.25 2040.05 268.4 2065.99 268.5 2258.14 161.87"/><polygon class="cls-2" points="2228.17 107.85 2250.14 60.33 2189.01 94.25 2012.93 191.96 1992.36 237.67 1995.38 237.03 2228.17 107.85"/><polygon class="cls-2" points="2258.14 161.87 2065.99 268.5 2080.98 268.56 2060.21 307.03 2310.09 168.37 2258.14 161.87"/><polygon class="cls-6" points="2383.78 56.83 2330.55 58.47 2354.22 101.12 2383.78 56.83"/><polygon class="cls-1" points="232.56 488.06 59.81 713.19 61.16 748.69 138.77 696.82 128.18 725.57 281.57 525.67 232.56 488.06"/><polygon class="cls-2" points="281.57 525.67 128.18 725.57 115.5 760 150.92 746.68 306.08 544.48 281.57 525.67"/><polygon class="cls-2" points="208.06 469.26 53.78 670.31 55.73 673.62 58.78 686.09 59.81 713.19 232.56 488.06 208.06 469.26"/><path class="cls-3" d="M366.13,466.22a11.11,11.11,0,0,0-2.1-16l-80-61.36a11.11,11.11,0,0,0-16,2.1l-36.61,47.7,98,75.22Z"/><polygon class="cls-4" points="281.57 525.67 306.08 544.48 306.09 544.48 329.53 513.93 329.52 513.93 231.5 438.71 231.49 438.7 208.05 469.25 208.06 469.26 232.56 488.06 281.57 525.67"/><polygon class="cls-1" points="1077.75 151.62 905 376.75 906.35 412.25 983.96 360.38 973.37 389.13 1126.76 189.23 1077.75 151.62"/><polygon class="cls-2" points="1126.76 189.23 973.37 389.13 960.69 423.56 996.11 410.24 1151.27 208.03 1126.76 189.23"/><polygon class="cls-2" points="1053.24 132.81 898.97 333.87 900.92 337.18 903.96 349.64 905 376.75 1077.75 151.62 1053.24 132.81"/><path class="cls-3" d="M1211.31,129.78a11.11,11.11,0,0,0-2.1-16l-80-61.36a11.11,11.11,0,0,0-16,2.1l-36.61,47.7,98,75.22Z"/><polygon class="cls-4" points="1126.76 189.23 1151.27 208.03 1151.28 208.04 1174.72 177.49 1174.71 177.48 1076.69 102.27 1076.68 102.26 1053.24 132.81 1053.24 132.81 1077.75 151.62 1126.76 189.23"/><polygon class="cls-1" points="2109.62 484.03 1950.13 718.75 1953.53 754.11 2028.02 697.86 2019.11 727.16 2160.72 518.75 2109.62 484.03"/><polygon class="cls-2" points="2160.72 518.75 2019.11 727.16 2008.43 762.27 2043.02 746.93 2186.27 536.11 2160.72 518.75"/><polygon class="cls-2" points="2084.07 466.67 1941.64 676.29 1943.79 679.48 1947.54 691.75 1950.13 718.75 2109.62 484.03 2084.07 466.67"/><path class="cls-3" d="M2241.71,454.53a11.11,11.11,0,0,0-3-15.81l-83.37-56.65a11.11,11.11,0,0,0-15.81,3l-33.8,49.74,102.2,69.44Z"/><polygon class="cls-4" points="2160.72 518.75 2186.27 536.11 2186.28 536.12 2207.92 504.27 2207.91 504.26 2105.72 434.82 2105.71 434.82 2084.07 466.67 2084.07 466.67 2109.62 484.03 2160.72 518.75"/></g></g></svg>