<svg xmlns="http://www.w3.org/2000/svg" viewBox="0 0 774.46 678.27"><defs><style>.cls-1{fill:#fff;}</style></defs><title>Asset 21</title><g id="Layer_2" data-name="Layer 2"><g id="Layer_1-2" data-name="Layer 1"><path class="cls-1" d="M742.51,298.53H534.62l-48,9.06v6.93H465.31v10.67h21.32v6.93l46.91,9.06h209a19.37,19.37,0,0,0,14.92-6.39c3.73-4.26,6.39-9.06,6.39-14.92a19.37,19.37,0,0,0-6.39-14.92C753.1,301.19,748.3,298.53,742.51,298.53ZM539.95,309.18h10.67v21.32H539.95Zm21.32,0h10.67v21.32H561.26Zm21.33,0h138.6v21.32H582.59V309.18Zm-85.3,6.93,32-5.87v19.2l-32-5.87ZM750,327.3a10.52,10.52,0,0,1-7.46,3.2H731.84V309.19h10.67a11,11,0,0,1,10.67,10.67A10.81,10.81,0,0,1,750,327.3Z"/><rect class="cls-1" x="731.84" y="85.3" width="10.67" height="10.67"/><rect class="cls-1" x="667.88" y="85.3" width="10.67" height="10.67"/><rect class="cls-1" x="625.23" y="85.3" width="10.67" height="10.67"/><rect class="cls-1" x="646.56" y="85.3" width="10.67" height="10.67"/><rect class="cls-1" x="710.53" y="85.3" width="10.67" height="10.67"/><rect class="cls-1" x="689.19" y="85.3" width="10.67" height="10.67"/><rect class="cls-1" x="603.91" y="85.3" width="10.67" height="10.67"/><rect class="cls-1" x="582.59" y="85.3" width="10.67" height="10.67"/><rect class="cls-1" x="582.59" y="106.63" width="10.67" height="10.67"/><rect class="cls-1" x="582.59" y="127.95" width="10.67" height="10.67"/><rect class="cls-1" x="582.59" y="149.26" width="10.67" height="10.67"/><rect class="cls-1" x="582.59" y="170.6" width="10.67" height="10.67"/><rect class="cls-1" x="582.59" y="191.91" width="10.67" height="10.67"/><rect class="cls-1" x="710.53" y="191.91" width="10.67" height="10.67"/><rect class="cls-1" x="689.19" y="191.91" width="10.67" height="10.67"/><rect class="cls-1" x="603.91" y="191.91" width="10.67" height="10.67"/><rect class="cls-1" x="667.88" y="191.91" width="10.67" height="10.67"/><rect class="cls-1" x="625.23" y="191.91" width="10.67" height="10.67"/><rect class="cls-1" x="646.56" y="191.91" width="10.67" height="10.67"/><rect class="cls-1" x="731.84" y="191.91" width="10.67" height="10.67"/><rect class="cls-1" x="731.84" y="149.26" width="10.67" height="10.67"/><rect class="cls-1" x="731.84" y="106.63" width="10.67" height="10.67"/><rect class="cls-1" x="731.84" y="127.95" width="10.67" height="10.67"/><rect class="cls-1" x="731.84" y="170.6" width="10.67" height="10.67"/><rect class="cls-1" x="614.58" y="159.93" width="47.97" height="10.67"/><rect class="cls-1" x="614.58" y="138.61" width="95.95" height="10.67"/><rect class="cls-1" x="614.58" y="117.28" width="95.95" height="10.67"/><path class="cls-1" d="M561.26,64V223.9H708.39l25,25a4.84,4.84,0,0,0,3.73,1.59,3.27,3.27,0,0,0,2.14-.53,5.12,5.12,0,0,0,3.2-4.8V223.9h21.32V64ZM753.1,213.23H731.78v19.2l-17.6-17.59a4.84,4.84,0,0,0-3.73-1.59H571.87V74.65H753.1V213.23Z"/><rect class="cls-1" x="689.19" y="234.56" width="10.67" height="53.3"/><path class="cls-1" d="M444,53.31H699.86V0H433.33V341.15h21.32V330.48H444l0-277.16Zm0-42.63h245.2v32H444Z"/><rect class="cls-1" x="454.66" y="21.33" width="10.67" height="10.67"/><rect class="cls-1" x="475.98" y="21.33" width="10.67" height="10.67"/><rect class="cls-1" x="497.3" y="21.33" width="10.67" height="10.67"/><rect class="cls-1" x="518.63" y="63.98" width="31.98" height="10.67"/><rect class="cls-1" x="518.63" y="85.3" width="31.98" height="10.67"/><rect class="cls-1" x="518.63" y="106.63" width="31.98" height="10.67"/><rect class="cls-1" x="518.63" y="127.95" width="31.98" height="10.67"/><rect class="cls-1" x="454.66" y="149.26" width="95.95" height="10.67"/><rect class="cls-1" x="454.66" y="170.6" width="95.95" height="10.67"/><rect class="cls-1" x="454.66" y="191.91" width="95.95" height="10.67"/><rect class="cls-1" x="454.66" y="213.23" width="95.95" height="10.67"/><rect class="cls-1" x="454.66" y="234.56" width="223.88" height="10.67"/><rect class="cls-1" x="454.66" y="255.88" width="223.88" height="10.67"/><rect class="cls-1" x="454.66" y="277.19" width="223.88" height="10.67"/><path class="cls-1" d="M508,138.61V85.3a19.37,19.37,0,0,0-6.39-14.92A19.37,19.37,0,0,0,486.65,64H476a19.37,19.37,0,0,0-14.92,6.39,19.37,19.37,0,0,0-6.39,14.92v53.3h10.65V112h32v26.66H508Zm-42.65-37.32v-16A11,11,0,0,1,476,74.63h10.67A11,11,0,0,1,497.31,85.3v16Z"/><rect class="cls-1" x="518.63" y="21.33" width="159.91" height="10.67"/><polygon class="cls-1" points="367.81 202.58 367.81 159.93 346.48 159.93 346.48 170.59 357.14 170.59 357.14 202.58 346.48 202.58 346.48 213.23 378.46 213.23 378.46 202.58 367.81 202.58"/><rect class="cls-1" x="357.14" y="138.61" width="10.67" height="10.67"/><polygon class="cls-1" points="69.3 122.62 79.97 122.62 79.97 95.96 90.62 95.96 90.62 85.3 79.97 85.3 79.97 63.98 101.28 63.98 101.28 53.31 69.3 53.31 69.3 85.3 58.63 85.3 58.63 95.96 69.3 95.96 69.3 122.62"/><path class="cls-1" d="M122.6,32H37.32V143.94H122.6ZM111.95,133.27H48V42.65h64Z"/><path class="cls-1" d="M133.26,218.57H296.38L326.77,249a4.84,4.84,0,0,0,3.73,1.59,3.27,3.27,0,0,0,2.14-.53,5.12,5.12,0,0,0,3.2-4.8V80H133.26Zm191.9,13.86L302.23,209.5a4.84,4.84,0,0,0-3.73-1.59H143.92V95.44l90.62,60.23,90.62-60.23v137Zm-169-141.79H312.9l-78.36,52.23Z"/><rect class="cls-1" x="207.9" y="175.92" width="10.67" height="10.67"/><rect class="cls-1" x="229.21" y="175.92" width="10.67" height="10.67"/><rect class="cls-1" x="250.53" y="175.92" width="10.67" height="10.67"/><path class="cls-1" d="M229.21,271.87H95.94a4.84,4.84,0,0,0-3.73,1.59L69.3,296.39V271.87H48V175.92h74.63V165.25H37.32V282.52H58.63v26.66c0,2.14,1.07,4.26,3.2,4.8a3.23,3.23,0,0,0,2.14.53,4.84,4.84,0,0,0,3.73-1.59l30.39-30.39H239.88v-53.3H229.21v42.65Z"/><rect class="cls-1" x="58.63" y="186.59" width="63.97" height="10.67"/><rect class="cls-1" x="58.63" y="207.9" width="63.97" height="10.67"/><rect class="cls-1" x="58.63" y="229.22" width="159.91" height="10.67"/><rect class="cls-1" x="122.6" y="250.55" width="95.95" height="10.67"/><path class="cls-1" d="M293.18,319.84a10.7,10.7,0,0,1-10.67-10.67V282.52h10.67V271.87H282.51V261.2H271.86v10.67H261.2v10.67h10.67v26.64a21.32,21.32,0,0,0,42.63,0H303.83A10.67,10.67,0,0,1,293.18,319.84Z"/><polygon class="cls-1" points="346.48 58.66 346.48 47.99 335.83 47.99 335.83 37.32 325.16 37.32 325.16 47.99 314.5 47.99 314.5 58.66 325.16 58.66 325.16 69.31 335.83 69.31 335.83 58.66 346.48 58.66"/><rect class="cls-1" x="159.92" y="10.68" width="85.28" height="10.67"/><rect class="cls-1" x="159.92" y="32" width="42.65" height="10.67"/><path class="cls-1" d="M341.15,475.72V449.07H330.48v16H309.16V443.74H282.5V383l-35.17-35.19H58.64v95.95H32v21.32H10.67v-16H0v42.65H10.67v-16H32v14.4L0,543.42V651.63a25,25,0,0,0,8,18.65,25,25,0,0,0,18.65,8H314.49a25,25,0,0,0,18.65-8,27.15,27.15,0,0,0,8-18.65V543.42l-32-53.3v-14.4Zm-90.61-109.8,13.86,13.86H250.54Zm80,285.71a16.4,16.4,0,0,1-16,16H26.66a14.5,14.5,0,0,1-11.19-4.8c-2.66-3.2-4.8-6.93-4.8-11.19v-105l29.85-49.57H59.17A47.35,47.35,0,0,0,73,525.84a48,48,0,0,0,34.12,13.86H235.07a48,48,0,0,0,34.12-13.86A46,46,0,0,0,283,497.06H301.7l29.85,49.57v105Zm-32-165.24H271.85v5.33a36.18,36.18,0,0,1-10.67,26.12A37.92,37.92,0,0,1,234.53,529H106.6a36.7,36.7,0,0,1-26.66-11.19,37.11,37.11,0,0,1-10.67-26.12v-5.33H42.62v-32h16v21.32H69.28V358.46H239.86v32h32v85.28h10.67V454.41h16v32Z"/><rect class="cls-1" x="58.64" y="577" width="10.67" height="10.67"/><rect class="cls-1" x="79.96" y="577" width="10.67" height="10.67"/><rect class="cls-1" x="101.27" y="577" width="10.67" height="10.67"/><rect class="cls-1" x="122.61" y="577" width="10.67" height="10.67"/><rect class="cls-1" x="143.92" y="577" width="10.67" height="10.67"/><rect class="cls-1" x="165.24" y="577" width="10.67" height="10.67"/><rect class="cls-1" x="186.57" y="577" width="10.67" height="10.67"/><rect class="cls-1" x="207.89" y="577" width="10.67" height="10.67"/><rect class="cls-1" x="229.21" y="577" width="10.67" height="10.67"/><rect class="cls-1" x="250.54" y="577" width="10.67" height="10.67"/><rect class="cls-1" x="271.85" y="577" width="10.67" height="10.67"/><rect class="cls-1" x="47.97" y="598.31" width="10.67" height="10.67"/><rect class="cls-1" x="69.29" y="598.31" width="10.67" height="10.67"/><rect class="cls-1" x="90.62" y="598.31" width="10.67" height="10.67"/><rect class="cls-1" x="111.94" y="598.31" width="10.67" height="10.67"/><rect class="cls-1" x="133.26" y="598.31" width="10.67" height="10.67"/><rect class="cls-1" x="154.59" y="598.31" width="10.67" height="10.67"/><rect class="cls-1" x="175.91" y="598.31" width="10.67" height="10.67"/><rect class="cls-1" x="197.22" y="598.31" width="10.67" height="10.67"/><rect class="cls-1" x="218.55" y="598.31" width="10.67" height="10.67"/><rect class="cls-1" x="239.87" y="598.31" width="10.67" height="10.67"/><rect class="cls-1" x="261.19" y="598.31" width="10.67" height="10.67"/><rect class="cls-1" x="282.52" y="598.31" width="10.67" height="10.67"/><rect class="cls-1" x="58.64" y="619.65" width="10.67" height="10.67"/><rect class="cls-1" x="79.96" y="619.65" width="10.67" height="10.67"/><rect class="cls-1" x="101.27" y="619.65" width="138.6" height="10.67"/><rect class="cls-1" x="250.54" y="619.65" width="10.67" height="10.67"/><rect class="cls-1" x="271.85" y="619.65" width="10.67" height="10.67"/><path class="cls-1" d="M26.66,651.63H314.5V555.68H26.66Zm10.65-85.3H303.84V641H37.31Z"/><polygon class="cls-1" points="229.21 486.39 218.55 486.39 207.89 486.39 197.22 486.39 186.57 486.39 175.91 486.39 165.24 486.39 154.59 486.39 143.92 486.39 133.26 486.39 122.61 486.39 111.94 486.39 101.27 486.39 85.28 486.39 85.28 497.04 101.27 497.04 101.27 513.03 111.94 513.03 111.94 497.04 122.61 497.04 122.61 513.03 133.26 513.03 133.26 497.04 143.92 497.04 143.92 513.03 154.59 513.03 154.59 497.04 165.24 497.04 165.24 513.03 175.91 513.03 175.91 497.04 186.57 497.04 186.57 513.03 197.22 513.03 197.22 497.04 207.89 497.04 207.89 513.03 218.55 513.03 218.55 497.04 229.21 497.04 229.21 513.03 239.87 513.03 239.87 497.04 255.86 497.04 255.86 486.39 239.87 486.39 229.21 486.39"/><rect class="cls-1" x="143.92" y="465.06" width="10.67" height="10.67"/><rect class="cls-1" x="165.24" y="465.06" width="10.67" height="10.67"/><rect class="cls-1" x="186.57" y="465.06" width="10.67" height="10.67"/><rect class="cls-1" x="149.25" y="379.78" width="79.96" height="10.67"/><rect class="cls-1" x="149.25" y="401.09" width="106.61" height="10.67"/><rect class="cls-1" x="149.25" y="422.42" width="106.61" height="10.67"/><rect class="cls-1" x="85.28" y="443.74" width="170.58" height="10.67"/><rect class="cls-1" x="106.61" y="401.09" width="10.67" height="10.67"/><path class="cls-1" d="M138.6,379.78H85.3v53.3h53.3v-53.3Zm-10.67,42.65h-32v-32h32v32Z"/><path class="cls-1" d="M444,526.36c0-52.77,39.44-98.08,91.15-105.55l-1.59-10.67c-57,8.53-100.21,58.1-100.21,116.2S476.51,634,534.08,642.54l1.59-10.67C483.43,624.44,444,579.13,444,526.36Z"/><path class="cls-1" d="M649.19,485.85l1.07,3.2h28.25v16h-16v10.67h16V537h-16v10.67h16v16H650.26l-1.59,3.2a106.34,106.34,0,0,1-78.36,64l2.14,10.67c37.85-7.46,68.76-32.51,84.76-67.17h21.32V585h10.67V467.72H678.51v10.67H657.72c-15.46-35.19-46.91-59.71-84.76-67.17l-2.14,10.67C606,428.29,635.34,452.27,649.19,485.85Z"/><rect class="cls-1" x="699.84" y="467.73" width="10.67" height="117.27"/><path class="cls-1" d="M731.83,585V574.33h21.32V547.69h5.33a14.5,14.5,0,0,0,11.19-4.8,15.34,15.34,0,0,0,4.8-11.19V521a14.5,14.5,0,0,0-4.8-11.19,15.34,15.34,0,0,0-11.19-4.8h-5.33V478.38H731.83V467.72H721.16V585Zm26.64-69.29a5.45,5.45,0,0,1,5.33,5.33V531.7a5.45,5.45,0,0,1-5.33,5.33h-5.33V515.71h5.33Zm-16-26.66v74.63H731.81V489.05Z"/><rect class="cls-1" x="545.26" y="430.41" width="10.67" height="10.67"/><rect class="cls-1" x="545.26" y="409.09" width="10.67" height="10.67"/><rect class="cls-1" x="545.26" y="387.76" width="10.67" height="10.67"/><rect class="cls-1" x="545.26" y="654.29" width="10.67" height="10.67"/><rect class="cls-1" x="545.26" y="632.97" width="10.67" height="10.67"/><rect class="cls-1" x="545.26" y="611.64" width="10.67" height="10.67"/><path class="cls-1" d="M602.83,459.2a4.15,4.15,0,0,0,1.07-4.26c0-1.59-1.07-2.66-2.14-3.73a96.79,96.79,0,0,0-34.12-14.4,4.14,4.14,0,0,0-4.26,1.07c-1.07,1.07-2.14,2.14-2.14,3.73a10.52,10.52,0,0,1-10.67,9.6,10.92,10.92,0,0,1-10.67-9.6c0-1.59-1.07-2.66-2.14-3.73s-2.66-1.07-4.26-1.07a80.83,80.83,0,0,0-34.12,14.4c-1.07,1.07-2.14,2.14-2.14,3.73s0,3.2,1.07,4.26c3.2,4.26,3.2,10.67-.53,14.4a10.65,10.65,0,0,1-14.4.53c-1.07-1.07-2.66-1.07-4.26-1.07a3.62,3.62,0,0,0-3.2,2.14,96.79,96.79,0,0,0-14.4,34.12,4.14,4.14,0,0,0,1.07,4.26,4,4,0,0,0,3.73,2.14,10.73,10.73,0,0,1,0,21.33c-1.59,0-2.66,1.07-3.73,2.14s-1.07,2.66-1.07,4.26a80.83,80.83,0,0,0,14.4,34.12,4.38,4.38,0,0,0,3.2,2.14c1.59,0,3.2,0,4.26-1.07a10.58,10.58,0,0,1,14.92,14.92c-1.07,1.07-1.07,2.66-1.07,4.26s1.07,2.66,2.14,3.73a96.79,96.79,0,0,0,34.12,14.4,4.14,4.14,0,0,0,4.26-1.07c1.07-1.07,2.14-2.14,2.14-3.73a10.52,10.52,0,0,1,10.67-9.6,10.92,10.92,0,0,1,10.67,9.6c0,1.59,1.07,2.66,2.14,3.73s2.66,1.07,4.26,1.07a80.83,80.83,0,0,0,34.12-14.4c1.07-1.07,2.14-2.14,2.14-3.73s0-3.2-1.07-4.26c-3.2-4.26-3.2-10.67.53-14.4a10.65,10.65,0,0,1,14.4-.53c1.07,1.07,2.66,1.07,4.26,1.07s2.66-1.07,3.73-2.14a96.79,96.79,0,0,0,14.4-34.12v-1.07a7.49,7.49,0,0,0-1.07-3.2c-1.07-1.07-2.14-2.14-3.73-2.14a10.52,10.52,0,0,1-9.6-10.67,10.92,10.92,0,0,1,9.6-10.67c1.59,0,2.66-1.07,3.73-2.14s1.07-2.66,1.07-4.26a80.83,80.83,0,0,0-14.4-34.12c-1.07-1.07-2.14-2.14-3.73-2.14s-3.2,0-4.26,1.07a10.58,10.58,0,0,1-14.92-14.91Zm-6.94,21.86a20.4,20.4,0,0,0,23.45,4.26,77.57,77.57,0,0,1,8.53,20.79c-8,3.73-13.33,11.19-13.33,20.25a20.92,20.92,0,0,0,13.33,19.72,89.82,89.82,0,0,1-8.53,20.79c-8-3.2-17.06-2.14-23.45,4.26a21.12,21.12,0,0,0-4.26,23.45,77.57,77.57,0,0,1-20.79,8.53,21.26,21.26,0,0,0-39.44,0,89.82,89.82,0,0,1-20.79-8.53c3.2-8,1.59-17.59-4.26-23.45a20.4,20.4,0,0,0-23.45-4.26,77.57,77.57,0,0,1-8.53-20.79,21.67,21.67,0,0,0,12.26-19.72,20.92,20.92,0,0,0-13.33-19.72,89.82,89.82,0,0,1,8.53-20.79c8,3.2,17.06,2.14,23.45-4.26a21.12,21.12,0,0,0,4.26-23.45,77.57,77.57,0,0,1,20.79-8.53,22.6,22.6,0,0,0,20.25,12.79,20.92,20.92,0,0,0,19.72-13.33,89.82,89.82,0,0,1,20.79,8.53C587.9,465.6,589.5,475.2,595.89,481.06Z"/><path class="cls-1" d="M502.61,526.36a48,48,0,1,0,48-48A47.77,47.77,0,0,0,502.61,526.36Zm85.3,0a37.31,37.31,0,1,1-37.31-37.31A37.07,37.07,0,0,1,587.9,526.36Z"/><path class="cls-1" d="M529.26,526.36A21.32,21.32,0,1,0,550.58,505,21.38,21.38,0,0,0,529.26,526.36Zm32,0a10.67,10.67,0,1,1-10.67-10.67A10.7,10.7,0,0,1,561.25,526.36Z"/></g></g></svg>